<?xml version="1.0" encoding="utf-8"?><svg xmlns="http://www.w3.org/2000/svg" xmlns:xlink="http://www.w3.org/1999/xlink" width="1280" height="609" preserveAspectRatio="xMidYMid" viewBox="0 0 1280 609" style="z-index:1;margin-right:-2px;display:block;background-repeat-y:initial;background-repeat-x:initial;animation-play-state:paused" ><g transform="translate(640,304.5) scale(1,1) translate(-640,-304.5)" style="transform:matrix(1, 0, 0, 1, 0, 0);animation-play-state:paused" ><defs style="animation-play-state:paused" ><path id="path-31g299n1al-1" d="M-35 -35L35 -35L35 35L-35 35Z" fill="none" stroke="inherit" stroke-width="4.333333333333334" transform="scale(0.3)" style="transform:matrix(0.3, 0, 0, 0.3, 0, 0);animation-play-state:paused" ></path>

  
<path id="path-31g299n1al-2" d="M0 -37A37 37 0 0 1 0 37A37 37 0 0 1 0 -37" fill="none" stroke="inherit" stroke-width="4.333333333333334" transform="scale(0.3)" style="transform:matrix(0.3, 0, 0, 0.3, 0, 0);animation-play-state:paused" ></path>

  
<path id="path-31g299n1al-3" d="M0 -34.641L40 34.641L-40 34.641Z" fill="none" stroke="inherit" stroke-width="4.333333333333334" transform="scale(0.3)" style="transform:matrix(0.3, 0, 0, 0.3, 0, 0);animation-play-state:paused" ></path></defs>
<path id="path0" d="M 91.79433470165293 322.40567712061164
c 0 19.837948585944048 -4.853966143369288 5.698134168303078 -10.552100311672366 5.698134168303078
S 70.6901340783082 342.2436257065557 70.6901340783082 322.40567712061164
s 4.853966143369288 -5.698134168303078 10.552100311672366 -5.698134168303078
S 91.79433470165293 302.5677285346676 91.79433470165293 322.40567712061164
z" fill="none" stroke="none" style="animation-play-state:paused" ></path>


<use xlink:href="#path-31g299n1al-1" x="0" y="0" stroke="rgba(255, 106, 72, 0.3)" transform="translate(91.37860107421875 329.90362548828125)" style="animation-play-state:paused" ></use>
<path id="path1" d="M 179.85522521174056 424.60719294549585
c 0 37.220227082219864 -9.107076839266563 10.690916289573792 -19.797993128840353 10.690916289573792
S 140.25923895405987 461.82742002771573 140.25923895405987 424.60719294549585
s 9.107076839266563 -10.690916289573792 19.797993128840353 -10.690916289573792
S 179.85522521174056 387.386965863276 179.85522521174056 424.60719294549585
z" fill="none" stroke="none" style="animation-play-state:paused" ></path>


<use xlink:href="#path-31g299n1al-3" x="0" y="0" stroke="#fffe76" transform="translate(179.85287475585938 425.58258056640625)" style="animation-play-state:paused" ></use>
<path id="path2" d="M 178.54964002597725 479.983427060287
c 0 24.14664335068325 -5.908221245379943 6.935737983706891 -12.843959229086835 6.935737983706891
S 152.86172156780358 504.13007041097023 152.86172156780358 479.983427060287
s 5.908221245379943 -6.935737983706891 12.843959229086835 -6.935737983706891
S 178.54964002597725 455.83678370960376 178.54964002597725 479.983427060287
z" fill="none" stroke="none" style="animation-play-state:paused" ></path>


<use xlink:href="#path-31g299n1al-2" x="0" y="0" stroke="rgba(255, 106, 72, 0.3)" transform="translate(178.54571533203125 481.01751708984375)" style="animation-play-state:paused" ></use>
<path id="path3" d="M 275.2992426192791 302.1824450242261
c 0 34.639251635105865 -8.475561570291859 9.949572278168706 -18.425133848460565 9.949572278168706
S 238.44897492235793 336.821696659332 238.44897492235793 302.1824450242261
s 8.475561570291859 -9.949572278168706 18.425133848460565 -9.949572278168706
S 275.2992426192791 267.54319338912023 275.2992426192791 302.1824450242261
z" fill="none" stroke="none" style="animation-play-state:paused" ></path>


<use xlink:href="#path-31g299n1al-3" x="0" y="0" stroke="rgba(158, 175, 192, 0.5)" transform="translate(272.5660095214844 320.2950744628906)" style="animation-play-state:paused" ></use>
<path id="path4" d="M 343.7364097219532 556.2539396446189
c 0 40.24465107810682 -9.847095476558051 11.55963382030728 -21.40672929686533 11.55963382030728
S 300.92295112822256 596.4985907227257 300.92295112822256 556.2539396446189
s 9.847095476558051 -11.55963382030728 21.40672929686533 -11.55963382030728
S 343.7364097219532 516.009288566512 343.7364097219532 556.2539396446189
z" fill="none" stroke="none" style="animation-play-state:paused" ></path>


<use xlink:href="#path-31g299n1al-2" x="0" y="0" stroke="#fffe76" transform="translate(343.10491943359375 569.9946899414062)" style="animation-play-state:paused" ></use>
<path id="path5" d="M 447.40472499070154 331.96098119958043
c 0 56.26088404426614 -13.76596098955448 16.160041161650913 -29.926002151205395 16.160041161650913
S 387.5527206882907 388.2218652438466 387.5527206882907 331.96098119958043
s 13.76596098955448 -16.160041161650913 29.926002151205395 -16.160041161650913
S 447.40472499070154 275.70009715531427 447.40472499070154 331.96098119958043
z" fill="none" stroke="none" style="animation-play-state:paused" ></path>


<use xlink:href="#path-31g299n1al-1" x="0" y="0" stroke="#fffe76" transform="translate(419.9779968261719 348.4270324707031)" style="animation-play-state:paused" ></use>
<path id="path6" d="M 486.2629439367384 353.3542875697119
c 0 34.90294563430668 -8.54008244243674 10.025314171556175 -18.565396613992917 10.025314171556175
S 449.1321507087526 388.2572332040186 449.1321507087526 353.3542875697119
s 8.54008244243674 -10.025314171556175 18.565396613992917 -10.025314171556175
S 486.2629439367384 318.45134193540525 486.2629439367384 353.3542875697119
z" fill="none" stroke="none" style="animation-play-state:paused" ></path>


<use xlink:href="#path-31g299n1al-3" x="0" y="0" stroke="#fffe76" transform="translate(486.20611572265625 357.92138671875)" style="animation-play-state:paused" ></use>
<path id="path7" d="M 565.1636760249505 96.80675204705744
c 0 63.35392034754996 -15.501491148868606 18.19740265301967 -33.698893801888275 18.19740265301967
S 497.76588842117394 160.1606723946074 497.76588842117394 96.80675204705744
s 15.501491148868606 -18.19740265301967 33.698893801888275 -18.19740265301967
S 565.1636760249505 33.452831699507485 565.1636760249505 96.80675204705744
z" fill="none" stroke="none" style="animation-play-state:paused" ></path>


<use xlink:href="#path-31g299n1al-3" x="0" y="0" stroke="rgba(255, 106, 72, 0.3)" transform="translate(526.8101196289062 115.9188461303711)" style="animation-play-state:paused" ></use>
<path id="path8" d="M 607.1160785854292 172.68801895671493
c 0 64.98081709668757 -15.899561630040575 18.664702783091112 -34.56426441313169 18.664702783091112
S 537.9875497591659 237.66883605340252 537.9875497591659 172.68801895671493
s 15.899561630040575 -18.664702783091112 34.56426441313169 -18.664702783091112
S 607.1160785854292 107.70720186002735 607.1160785854292 172.68801895671493
z" fill="none" stroke="none" style="animation-play-state:paused" ></path>


<use xlink:href="#path-31g299n1al-2" x="0" y="0" stroke="rgba(158, 175, 192, 0.5)" transform="translate(606.9625854492188 182.7658233642578)" style="animation-play-state:paused" ></use>
<path id="path9" d="M 734.1572981409515 543.2171842584927
c 0 64.81400984002352 -15.858747088516388 18.616790060432287 -34.475537148948675 18.616790060432287
S 665.2062238430542 608.0311940985162 665.2062238430542 543.2171842584927
s 15.858747088516388 -18.616790060432287 34.475537148948675 -18.616790060432287
S 734.1572981409515 478.4031744184692 734.1572981409515 543.2171842584927
z" fill="none" stroke="none" style="animation-play-state:paused" ></path>


<use xlink:href="#path-31g299n1al-1" x="0" y="0" stroke="#fffe76" transform="translate(734.1465454101562 546.0441284179688)" style="animation-play-state:paused" ></use>
<path id="path10" d="M 743.55421423805 328.6925658365074
c 0 44.253430807330744 -10.82796711243199 12.711091827637555 -23.539058940069545 12.711091827637555
S 696.4760963579108 372.94599664383816 696.4760963579108 328.6925658365074
s 10.82796711243199 -12.711091827637555 23.539058940069545 -12.711091827637555
S 743.55421423805 284.43913502917667 743.55421423805 328.6925658365074
z" fill="none" stroke="none" style="animation-play-state:paused" ></path>


<use xlink:href="#path-31g299n1al-3" x="0" y="0" stroke="rgba(158, 175, 192, 0.5)" transform="translate(743.4764404296875 334.6775817871094)" style="animation-play-state:paused" ></use>
<path id="path11" d="M 822.6033111318179 482.52296556917054
c 0 62.458126089020574 -15.282307447313542 17.940100046846336 -33.22240749415988 17.940100046846336
S 756.158496143498 544.9810916581911 756.158496143498 482.52296556917054
s 15.282307447313542 -17.940100046846336 33.22240749415988 -17.940100046846336
S 822.6033111318179 420.06483948014994 822.6033111318179 482.52296556917054
z" fill="none" stroke="none" style="animation-play-state:paused" ></path>


<use xlink:href="#path-31g299n1al-3" x="0" y="0" stroke="rgba(158, 175, 192, 0.5)" transform="translate(762.0639038085938 515.6889038085938)" style="animation-play-state:paused" ></use>
<path id="path12" d="M 883.5244781138775 289.84151537751416
c 0 19.236491989969863 -4.70680123158837 5.5253753588211305 -10.232176590409502 5.5253753588211305
S 863.0601249330585 309.078007367484 863.0601249330585 289.84151537751416
s 4.70680123158837 -5.5253753588211305 10.232176590409502 -5.5253753588211305
S 883.5244781138775 270.6050233875443 883.5244781138775 289.84151537751416
z" fill="none" stroke="none" style="animation-play-state:paused" ></path>


<use xlink:href="#path-31g299n1al-1" x="0" y="0" stroke="rgba(255, 106, 72, 0.3)" transform="translate(877.3225708007812 297.291015625)" style="animation-play-state:paused" ></use>
<path id="path13" d="M 978.6574386942 291.14636724455994
c 0 62.48021992313965 -15.287713385449061 17.94644614813586 -33.23415953358492 17.94644614813586
S 912.1891196270301 353.6265871676996 912.1891196270301 291.14636724455994
s 15.287713385449061 -17.94644614813586 33.23415953358492 -17.94644614813586
S 978.6574386942 228.66614732142028 978.6574386942 291.14636724455994
z" fill="none" stroke="none" style="animation-play-state:paused" ></path>


<use xlink:href="#path-31g299n1al-2" x="0" y="0" stroke="#fffe76" transform="translate(978.3753662109375 304.0564270019531)" style="animation-play-state:paused" ></use>
<path id="path14" d="M 1037.2635008877014 326.1763112596794
c 0 53.40068473480132 -13.066124988302448 15.338494551485484 -28.40461953978793 15.338494551485484
S 980.4542618081256 379.5769959944807 980.4542618081256 326.1763112596794
s 13.066124988302448 -15.338494551485484 28.40461953978793 -15.338494551485484
S 1037.2635008877014 272.7756265248781 1037.2635008877014 326.1763112596794
z" fill="none" stroke="none" style="animation-play-state:paused" ></path>


<use xlink:href="#path-31g299n1al-2" x="0" y="0" stroke="rgba(158, 175, 192, 0.5)" transform="translate(991.84814453125 351.80987548828125)" style="animation-play-state:paused" ></use>
<path id="path15" d="M 1090.7319356325982 364.613265474278
c 0 22.00629316777146 -5.384518541050463 6.320956548189675 -11.705475089240139 6.320956548189675
S 1067.320985454118 386.61955864204947 1067.320985454118 364.613265474278
s 5.384518541050463 -6.320956548189675 11.705475089240139 -6.320956548189675
S 1090.7319356325982 342.6069723065066 1090.7319356325982 364.613265474278
z" fill="none" stroke="none" style="animation-play-state:paused" ></path>


<use xlink:href="#path-31g299n1al-3" x="0" y="0" stroke="rgba(158, 175, 192, 0.5)" transform="translate(1075.5968017578125 372.2382507324219)" style="animation-play-state:paused" ></use>
<path id="path16" d="M 1187.9926427934167 225.12048646171968
c 0 61.147925170886666 -14.961726371599926 17.56376574057383 -32.52549211217376 17.56376574057383
S 1122.9416585690694 286.26841163260633 1122.9416585690694 225.12048646171968
s 14.961726371599926 -17.56376574057383 32.52549211217376 -17.56376574057383
S 1187.9926427934167 163.97256129083303 1187.9926427934167 225.12048646171968
z" fill="none" stroke="none" style="animation-play-state:paused" ></path>


<use xlink:href="#path-31g299n1al-1" x="0" y="0" stroke="rgba(255, 106, 72, 0.3)" transform="translate(1187.8179931640625 235.45077514648438)" style="animation-play-state:paused" ></use>
<path id="path17" d="M 1273.8878548129003 35.28441153960233
c 0 31.03514064001159 -7.593704624683687 8.914348907237372 -16.508053531921057 8.914348907237372
S 1240.8717477490584 66.31955217961392 1240.8717477490584 35.28441153960233
s 7.593704624683687 -8.914348907237372 16.508053531921057 -8.914348907237372
S 1273.8878548129003 4.249270899590741 1273.8878548129003 35.28441153960233
z" fill="none" stroke="none" style="animation-play-state:paused" ></path>


<use xlink:href="#path-31g299n1al-3" x="0" y="0" stroke="rgba(158, 175, 192, 0.5)" transform="translate(1266.145751953125 49.23930740356445)" style="animation-play-state:paused" ></use></g></svg>